<?xml version="1.0" encoding="utf-8"?>
<!-- Generator: Adobe Illustrator 19.0.0, SVG Export Plug-In . SVG Version: 6.00 Build 0)  -->
<svg version="1.1" id="Layer_1" xmlns="http://www.w3.org/2000/svg" xmlns:xlink="http://www.w3.org/1999/xlink" x="0px" y="0px"
	 viewBox="0 0 500 112.3" style="enable-background:new 0 0 500 112.3;" xml:space="preserve">
<style type="text/css">
	.st0{fill:#808285;}
	.st1{fill:#A7A9AC;}
	.st2{opacity:0.5;}
	.st3{fill:#231F20;}
	.st4{fill:#24A0D1;}
</style>
<g id="XMLID_842_">
	<g id="XMLID_855_">
		
			<rect id="XMLID_856_" x="36.7" y="11.7" transform="matrix(0.7071 0.7071 -0.7071 0.7071 37.3657 -30.1722)" class="st0" width="36.7" height="36.7"/>
	</g>
	<g id="XMLID_853_">
		
			<rect id="XMLID_854_" x="10.8" y="37.6" transform="matrix(0.7071 0.7071 -0.7071 0.7071 48.1188 -4.2119)" class="st1" width="36.7" height="36.7"/>
	</g>
	<g id="XMLID_851_">
		
			<rect id="XMLID_852_" x="88.7" y="63.6" transform="matrix(-0.7071 0.7071 -0.7071 -0.7071 240.6417 64.2007)" class="st0" width="36.7" height="36.7"/>
	</g>
	<g id="XMLID_849_">
		
			<rect id="XMLID_850_" x="114.6" y="37.6" transform="matrix(-0.7071 0.7071 -0.7071 -0.7071 266.602 1.5269)" class="st1" width="36.7" height="36.7"/>
	</g>
	<g id="XMLID_847_" class="st2">
		<polygon id="XMLID_848_" class="st3" points="74.7,23.6 48.7,49.6 22.7,75.5 48.7,101.5 74.7,75.5 100.6,49.6 		"/>
	</g>
	<g id="XMLID_845_" class="st2">
		<polygon id="XMLID_846_" class="st3" points="113.4,10.7 87.4,36.7 61.5,62.6 87.4,88.6 113.4,62.6 139.3,36.7 		"/>
	</g>
	<g id="XMLID_843_">
		
			<rect id="XMLID_844_" x="62.7" y="0.9" transform="matrix(0.7071 0.7071 -0.7071 0.7071 63.3236 -40.9309)" class="st4" width="36.7" height="110.2"/>
	</g>
</g>
<g id="XMLID_820_">
	<path id="XMLID_839_" class="st4" d="M243.7,66c0,6.7-1.6,12-4.8,15.9c-3.2,3.9-7.6,5.9-13.2,5.9c-3.8,0-7.1-0.7-9.9-2.1
		c-2.8-1.4-5-3.3-6.5-5.7l-0.3,7h-2V26.3h-7.2v-2.2h9.6v27.2c1.6-2.7,3.7-4.8,6.4-6.4c2.7-1.6,6-2.3,9.8-2.3c5.6,0,10,2,13.2,6.1
		c3.2,4.1,4.8,9.6,4.8,16.5V66z M241.3,65.1c0-6-1.3-10.9-4-14.7c-2.6-3.8-6.5-5.7-11.5-5.7c-4.7,0-8.3,1.1-10.8,3.2
		c-2.5,2.2-4.4,4.8-5.5,8v20c1.1,3,3.1,5.3,5.9,7.1c2.8,1.8,6.2,2.6,10.5,2.6c5,0,8.9-1.8,11.5-5.3c2.6-3.5,3.9-8.3,3.9-14.3V65.1z"
		/>
	<path id="XMLID_836_" class="st4" d="M286.3,87c-0.4-1.9-0.6-3.3-0.8-4.3c-0.1-1-0.2-2-0.2-3.1v-0.6c-1.8,2.6-4.4,4.7-7.7,6.4
		c-3.3,1.7-7.1,2.5-11.6,2.5c-4.4,0-7.9-1.1-10.4-3.3c-2.5-2.2-3.8-5.1-3.8-8.6c0-3.9,2-7.1,5.9-9.6c3.9-2.5,9.2-3.7,15.8-3.7h11.9
		v-6.4c0-3.6-1.3-6.4-3.8-8.5c-2.5-2-6.1-3-10.8-3c-3,0-5.9,0.4-8.5,1.2c-2.6,0.8-4.9,1.9-6.7,3.2l0,7h-2.4l0-8.3
		c2.3-1.5,4.9-2.8,8-3.8c3.1-1,6.3-1.5,9.6-1.5c5.1,0,9.2,1.2,12.3,3.5c3.1,2.4,4.6,5.8,4.6,10.2v21.8c0,1.1,0.1,2.2,0.2,3.3
		c0.1,1.1,0.3,2.2,0.5,3.3h5.7V87H286.3z M266.1,85.7c4.5,0,8.4-0.9,11.7-2.8c3.3-1.9,5.8-4.4,7.5-7.7V64.9h-11.7
		c-5.9,0-10.6,1-14.1,3.1c-3.5,2.1-5.3,4.8-5.3,8.1c0,2.7,1.1,5,3.3,6.8C259.7,84.8,262.5,85.7,266.1,85.7z"/>
	<path id="XMLID_834_" class="st4" d="M299.8,26.3v-2.2h9.6v60.6h7.2V87h-16.8v-2.2h7.2V26.3H299.8z"/>
	<path id="XMLID_832_" class="st4" d="M334.9,31.6v11.8h11.7v2.2h-11.7v30.1c0,3.6,0.7,6.1,2,7.6c1.3,1.5,3.1,2.3,5.3,2.3
		c0.9,0,1.8,0,2.5-0.1c0.7-0.1,1.8-0.1,3-0.3l0.4,2c-0.9,0.2-1.8,0.4-2.7,0.4c-0.9,0.1-2,0.1-3.2,0.1c-3.2,0-5.6-1-7.3-2.9
		c-1.7-1.9-2.5-5-2.5-9.2V45.6h-8.8v-2.2h8.8V31.6H334.9z"/>
	<path id="XMLID_829_" class="st4" d="M390.5,87c-0.4-1.9-0.6-3.3-0.8-4.3c-0.1-1-0.2-2-0.2-3.1v-0.6c-1.8,2.6-4.4,4.7-7.7,6.4
		c-3.3,1.7-7.1,2.5-11.6,2.5c-4.4,0-7.9-1.1-10.4-3.3c-2.5-2.2-3.8-5.1-3.8-8.6c0-3.9,2-7.1,5.9-9.6c3.9-2.5,9.2-3.7,15.8-3.7h11.9
		v-6.4c0-3.6-1.3-6.4-3.8-8.5c-2.5-2-6.1-3-10.8-3c-3,0-5.9,0.4-8.5,1.2c-2.6,0.8-4.9,1.9-6.7,3.2l0,7h-2.4l0-8.3
		c2.3-1.5,4.9-2.8,8-3.8c3.1-1,6.3-1.5,9.6-1.5c5.1,0,9.2,1.2,12.3,3.5c3.1,2.4,4.6,5.8,4.6,10.2v21.8c0,1.1,0.1,2.2,0.2,3.3
		c0.1,1.1,0.3,2.2,0.5,3.3h5.7V87H390.5z M370.2,85.7c4.5,0,8.4-0.9,11.7-2.8c3.3-1.9,5.8-4.4,7.5-7.7V64.9h-11.7
		c-5.9,0-10.6,1-14.1,3.1c-3.5,2.1-5.3,4.8-5.3,8.1c0,2.7,1.1,5,3.3,6.8C363.8,84.8,366.7,85.7,370.2,85.7z"/>
	<path id="XMLID_827_" class="st0" d="M415.4,87h-8.7v-8.1h8.7V87z"/>
	<path id="XMLID_824_" class="st0" d="M424.9,81.9l7.2-1.1V49.6l-7.2-1.1v-5.1h15.9v37.4l7.2,1.1V87h-23.1V81.9z M440.8,32.2h-8.7
		v-8.1h8.7V32.2z"/>
	<path id="XMLID_821_" class="st0" d="M453.6,64.8c0-6.4,1.9-11.8,5.7-15.9s9-6.3,15.6-6.3c6.6,0,11.8,2.1,15.7,6.2
		c3.8,4.2,5.8,9.5,5.8,15.9v0.9c0,6.5-1.9,11.8-5.7,15.9c-3.8,4.1-9,6.2-15.6,6.2c-6.6,0-11.8-2.1-15.7-6.2
		c-3.8-4.1-5.7-9.5-5.7-15.9V64.8z M462.3,65.7c0,4.6,1.1,8.4,3.2,11.4c2.1,3,5.3,4.5,9.5,4.5c4.1,0,7.3-1.5,9.4-4.5
		c2.1-3,3.2-6.8,3.2-11.4v-0.9c0-4.6-1.1-8.4-3.2-11.4c-2.1-3-5.3-4.5-9.5-4.5s-7.3,1.5-9.5,4.5c-2.1,3-3.2,6.8-3.2,11.4V65.7z"/>
</g>
</svg>
