<?xml version="1.0" standalone="no"?>
<!DOCTYPE svg PUBLIC "-//W3C//DTD SVG 20010904//EN"
 "http://www.w3.org/TR/2001/REC-SVG-20010904/DTD/svg10.dtd">
<svg version="1.0" xmlns="http://www.w3.org/2000/svg"
 width="423.000000pt" height="423.000000pt" viewBox="0 0 423.000000 423.000000"
 preserveAspectRatio="xMidYMid meet">
<metadata>
Created by potrace 1.11, written by Peter Selinger 2001-2013
</metadata>
<g transform="translate(0.000000,423.000000) scale(0.100000,-0.100000)"
fill="#000000" stroke="none">
<path d="M658 4216 c-42 -18 -75 -51 -98 -96 -20 -40 -20 -42 -17 -1393 1
-743 6 -1363 10 -1377 4 -14 10 -41 13 -60 3 -19 10 -53 16 -75 5 -22 11 -47
13 -55 7 -36 59 -178 86 -239 37 -79 116 -216 135 -232 8 -6 14 -16 14 -21 0
-17 124 -159 204 -236 241 -228 544 -374 875 -419 73 -10 328 -10 411 0 201
24 411 98 608 214 310 182 568 505 682 853 24 75 37 124 67 270 4 19 8 640 10
1381 3 1185 2 1349 -12 1380 -21 48 -45 73 -93 98 l-41 21 -1428 -1 c-1091 0
-1434 -3 -1455 -13z"/>
</g>
</svg>
