<?xml version="1.0" standalone="no"?>
<!DOCTYPE svg PUBLIC "-//W3C//DTD SVG 20010904//EN"
 "http://www.w3.org/TR/2001/REC-SVG-20010904/DTD/svg10.dtd">
<svg version="1.0" xmlns="http://www.w3.org/2000/svg"
 width="700.000000pt" height="700.000000pt" viewBox="0 0 700.000000 700.000000"
 preserveAspectRatio="xMidYMid meet">
<metadata>
Created by potrace 1.11, written by Peter Selinger 2001-2013
</metadata>
<g transform="translate(0.000000,700.000000) scale(0.100000,-0.100000)"
fill="#000000" stroke="none">
<path d="M3278 6995 c-1 -1 -34 -5 -73 -9 -150 -12 -307 -37 -453 -72 -37 -8
-75 -17 -84 -19 -84 -18 -360 -109 -409 -136 -13 -7 -25 -12 -26 -11 -13 7
-325 -148 -448 -223 -306 -185 -595 -425 -812 -674 -21 -24 -48 -56 -61 -70
-60 -68 -201 -263 -277 -382 -80 -126 -245 -442 -280 -539 -141 -384 -195
-590 -240 -920 -14 -100 -20 -236 -20 -430 0 -246 11 -405 40 -575 8 -45 17
-97 21 -125 26 -144 118 -456 189 -635 72 -185 271 -555 358 -668 15 -20 27
-38 27 -41 0 -10 132 -179 217 -278 416 -482 940 -830 1538 -1021 154 -49 322
-91 450 -111 17 -2 50 -8 75 -11 25 -4 52 -9 60 -10 14 -2 127 -13 225 -21
108 -9 417 -3 530 10 33 4 80 9 105 12 25 3 72 10 105 15 33 6 74 13 90 16 62
9 313 74 405 104 353 116 663 276 964 498 111 82 118 88 240 196 667 590 1074
1405 1163 2330 10 100 10 536 0 630 -52 494 -176 917 -389 1325 -203 389 -483
743 -825 1041 -126 110 -379 286 -548 381 -85 48 -310 158 -323 158 -4 0 -23
8 -42 19 -42 22 -270 100 -395 135 -135 37 -327 75 -465 91 -30 4 -68 9 -85
11 -34 5 -541 14 -547 9z"/>
</g>
</svg>
